<svg id="my-svg" width="100%" xmlns="http://www.w3.org/2000/svg" xmlns:xlink="http://www.w3.org/1999/xlink" class="classDiagram" style="max-width: 575.172px; background-color: white;" viewBox="0 0 575.171875 716" role="graphics-document document" aria-roledescription="class"><style>#my-svg{font-family:"trebuchet ms",verdana,arial,sans-serif;font-size:16px;fill:#333;}@keyframes edge-animation-frame{from{stroke-dashoffset:0;}}@keyframes dash{to{stroke-dashoffset:0;}}#my-svg .edge-animation-slow{stroke-dasharray:9,5!important;stroke-dashoffset:900;animation:dash 50s linear infinite;stroke-linecap:round;}#my-svg .edge-animation-fast{stroke-dasharray:9,5!important;stroke-dashoffset:900;animation:dash 20s linear infinite;stroke-linecap:round;}#my-svg .error-icon{fill:#552222;}#my-svg .error-text{fill:#552222;stroke:#552222;}#my-svg .edge-thickness-normal{stroke-width:1px;}#my-svg .edge-thickness-thick{stroke-width:3.5px;}#my-svg .edge-pattern-solid{stroke-dasharray:0;}#my-svg .edge-thickness-invisible{stroke-width:0;fill:none;}#my-svg .edge-pattern-dashed{stroke-dasharray:3;}#my-svg .edge-pattern-dotted{stroke-dasharray:2;}#my-svg .marker{fill:#333333;stroke:#333333;}#my-svg .marker.cross{stroke:#333333;}#my-svg svg{font-family:"trebuchet ms",verdana,arial,sans-serif;font-size:16px;}#my-svg p{margin:0;}#my-svg g.classGroup text{fill:#9370DB;stroke:none;font-family:"trebuchet ms",verdana,arial,sans-serif;font-size:10px;}#my-svg g.classGroup text .title{font-weight:bolder;}#my-svg .cluster-label text{fill:#333;}#my-svg .cluster-label span{color:#333;}#my-svg .cluster-label span p{background-color:transparent;}#my-svg .cluster rect{fill:#ffffde;stroke:#aaaa33;stroke-width:1px;}#my-svg .cluster text{fill:#333;}#my-svg .cluster span{color:#333;}#my-svg .nodeLabel,#my-svg .edgeLabel{color:#131300;}#my-svg .noteLabel .nodeLabel,#my-svg .noteLabel .edgeLabel{color:black;}#my-svg .edgeLabel .label rect{fill:#ECECFF;}#my-svg .label text{fill:#131300;}#my-svg .labelBkg{background:#ECECFF;}#my-svg .edgeLabel .label span{background:#ECECFF;}#my-svg .classTitle{font-weight:bolder;}#my-svg .node rect,#my-svg .node circle,#my-svg .node ellipse,#my-svg .node polygon,#my-svg .node path{fill:#ECECFF;stroke:#9370DB;stroke-width:1;}#my-svg .divider{stroke:#9370DB;stroke-width:1;}#my-svg g.clickable{cursor:pointer;}#my-svg g.classGroup rect{fill:#ECECFF;stroke:#9370DB;}#my-svg g.classGroup line{stroke:#9370DB;stroke-width:1;}#my-svg .classLabel .box{stroke:none;stroke-width:0;fill:#ECECFF;opacity:0.5;}#my-svg .classLabel .label{fill:#9370DB;font-size:10px;}#my-svg .relation{stroke:#333333;stroke-width:1;fill:none;}#my-svg .dashed-line{stroke-dasharray:3;}#my-svg .dotted-line{stroke-dasharray:1 2;}#my-svg [id$="-compositionStart"],#my-svg .composition{fill:#333333!important;stroke:#333333!important;stroke-width:1;}#my-svg [id$="-compositionEnd"],#my-svg .composition{fill:#333333!important;stroke:#333333!important;stroke-width:1;}#my-svg [id$="-dependencyStart"],#my-svg .dependency{fill:#333333!important;stroke:#333333!important;stroke-width:1;}#my-svg [id$="-dependencyEnd"],#my-svg .dependency{fill:#333333!important;stroke:#333333!important;stroke-width:1;}#my-svg [id$="-extensionStart"],#my-svg .extension{fill:transparent!important;stroke:#333333!important;stroke-width:1;}#my-svg [id$="-extensionEnd"],#my-svg .extension{fill:transparent!important;stroke:#333333!important;stroke-width:1;}#my-svg [id$="-aggregationStart"],#my-svg .aggregation{fill:transparent!important;stroke:#333333!important;stroke-width:1;}#my-svg [id$="-aggregationEnd"],#my-svg .aggregation{fill:transparent!important;stroke:#333333!important;stroke-width:1;}#my-svg [id$="-lollipopStart"],#my-svg .lollipop{fill:#ECECFF!important;stroke:#333333!important;stroke-width:1;}#my-svg [id$="-lollipopEnd"],#my-svg .lollipop{fill:#ECECFF!important;stroke:#333333!important;stroke-width:1;}#my-svg .edgeTerminals{font-size:11px;line-height:initial;}#my-svg .classTitleText{text-anchor:middle;font-size:18px;fill:#333;}#my-svg .edgeLabel[data-look="neo"]{background-color:rgba(232,232,232, 0.8);text-align:center;}#my-svg .edgeLabel[data-look="neo"] p{background-color:rgba(232,232,232, 0.8);}#my-svg .edgeLabel[data-look="neo"] rect{opacity:0.5;background-color:rgba(232,232,232, 0.8);fill:rgba(232,232,232, 0.8);}#my-svg .label-icon{display:inline-block;height:1em;overflow:visible;vertical-align:-0.125em;}#my-svg .node .label-icon path{fill:currentColor;stroke:revert;stroke-width:revert;}#my-svg .node .neo-node{stroke:#9370DB;}#my-svg [data-look="neo"].node rect,#my-svg [data-look="neo"].cluster rect,#my-svg [data-look="neo"].node polygon{stroke:#9370DB;filter:drop-shadow(1px 2px 2px rgba(185, 185, 185, 1));}#my-svg [data-look="neo"].node path{stroke:#9370DB;stroke-width:1px;}#my-svg [data-look="neo"].node .outer-path{filter:drop-shadow(1px 2px 2px rgba(185, 185, 185, 1));}#my-svg [data-look="neo"].node .neo-line path{stroke:#9370DB;filter:none;}#my-svg [data-look="neo"].node circle{stroke:#9370DB;filter:drop-shadow(1px 2px 2px rgba(185, 185, 185, 1));}#my-svg [data-look="neo"].node circle .state-start{fill:#000000;}#my-svg [data-look="neo"].icon-shape .icon{fill:#9370DB;filter:drop-shadow(1px 2px 2px rgba(185, 185, 185, 1));}#my-svg [data-look="neo"].icon-shape .icon-neo path{stroke:#9370DB;filter:drop-shadow(1px 2px 2px rgba(185, 185, 185, 1));}#my-svg :root{--mermaid-font-family:"trebuchet ms",verdana,arial,sans-serif;}</style><g><defs><marker id="my-svg_class-aggregationStart" class="marker aggregation class" refX="18" refY="7" markerWidth="190" markerHeight="240" orient="auto"><path d="M 18,7 L9,13 L1,7 L9,1 Z"/></marker></defs><defs><marker id="my-svg_class-aggregationEnd" class="marker aggregation class" refX="1" refY="7" markerWidth="20" markerHeight="28" orient="auto"><path d="M 18,7 L9,13 L1,7 L9,1 Z"/></marker></defs><defs><marker id="my-svg_class-aggregationStart-margin" class="marker aggregation class" refX="15" refY="7" markerWidth="190" markerHeight="240" orient="auto" markerUnits="userSpaceOnUse"><path d="M 18,7 L9,13 L1,7 L9,1 Z" style="stroke-width: 2;"/></marker></defs><defs><marker id="my-svg_class-aggregationEnd-margin" class="marker aggregation class" refX="1" refY="7" markerWidth="20" markerHeight="28" orient="auto" markerUnits="userSpaceOnUse"><path d="M 18,7 L9,13 L1,7 L9,1 Z" style="stroke-width: 2;"/></marker></defs><defs><marker id="my-svg_class-extensionStart" class="marker extension class" refX="18" refY="7" markerWidth="20" markerHeight="28" orient="auto" markerUnits="userSpaceOnUse"><path d="M 1,7 L18,13 V 1 Z"/></marker></defs><defs><marker id="my-svg_class-extensionEnd" class="marker extension class" refX="1" refY="7" markerWidth="20" markerHeight="28" orient="auto"><path d="M 1,1 V 13 L18,7 Z"/></marker></defs><marker id="my-svg_class-extensionStart-margin" class="marker extension class" refX="18" refY="7" markerWidth="20" markerHeight="28" orient="auto" markerUnits="userSpaceOnUse" viewBox="0 0 20 14"><polygon points="10,7 18,13 18,1" style="stroke-width: 2; stroke-dasharray: 0;"/></marker><defs><marker id="my-svg_class-extensionEnd-margin" class="marker extension class" refX="9" refY="7" markerWidth="20" markerHeight="28" orient="auto" markerUnits="userSpaceOnUse" viewBox="0 0 20 14"><polygon points="10,1 10,13 18,7" style="stroke-width: 2; stroke-dasharray: 0;"/></marker></defs><defs><marker id="my-svg_class-compositionStart" class="marker composition class" refX="18" refY="7" markerWidth="190" markerHeight="240" orient="auto"><path d="M 18,7 L9,13 L1,7 L9,1 Z"/></marker></defs><defs><marker id="my-svg_class-compositionEnd" class="marker composition class" refX="1" refY="7" markerWidth="20" markerHeight="28" orient="auto"><path d="M 18,7 L9,13 L1,7 L9,1 Z"/></marker></defs><defs><marker id="my-svg_class-compositionStart-margin" class="marker composition class" refX="15" refY="7" markerWidth="190" markerHeight="240" orient="auto" markerUnits="userSpaceOnUse"><path viewBox="0 0 15 15" d="M 18,7 L9,13 L1,7 L9,1 Z" style="stroke-width: 0;"/></marker></defs><defs><marker id="my-svg_class-compositionEnd-margin" class="marker composition class" refX="3.5" refY="7" markerWidth="20" markerHeight="28" orient="auto" markerUnits="userSpaceOnUse"><path d="M 18,7 L9,13 L1,7 L9,1 Z" style="stroke-width: 0;"/></marker></defs><defs><marker id="my-svg_class-dependencyStart" class="marker dependency class" refX="6" refY="7" markerWidth="190" markerHeight="240" orient="auto"><path d="M 5,7 L9,13 L1,7 L9,1 Z"/></marker></defs><defs><marker id="my-svg_class-dependencyEnd" class="marker dependency class" refX="13" refY="7" markerWidth="20" markerHeight="28" orient="auto"><path d="M 18,7 L9,13 L14,7 L9,1 Z"/></marker></defs><defs><marker id="my-svg_class-dependencyStart-margin" class="marker dependency class" refX="4" refY="7" markerWidth="190" markerHeight="240" orient="auto" markerUnits="userSpaceOnUse"><path d="M 5,7 L9,13 L1,7 L9,1 Z" style="stroke-width: 0;"/></marker></defs><defs><marker id="my-svg_class-dependencyEnd-margin" class="marker dependency class" refX="16" refY="7" markerWidth="20" markerHeight="28" orient="auto" markerUnits="userSpaceOnUse"><path d="M 18,7 L9,13 L14,7 L9,1 Z" style="stroke-width: 0;"/></marker></defs><defs><marker id="my-svg_class-lollipopStart" class="marker lollipop class" refX="13" refY="7" markerWidth="190" markerHeight="240" orient="auto"><circle fill="transparent" cx="7" cy="7" r="6"/></marker></defs><defs><marker id="my-svg_class-lollipopEnd" class="marker lollipop class" refX="1" refY="7" markerWidth="190" markerHeight="240" orient="auto"><circle fill="transparent" cx="7" cy="7" r="6"/></marker></defs><defs><marker id="my-svg_class-lollipopStart-margin" class="marker lollipop class" refX="13" refY="7" markerWidth="190" markerHeight="240" orient="auto" markerUnits="userSpaceOnUse"><circle fill="transparent" cx="7" cy="7" r="6" stroke-width="2"/></marker></defs><defs><marker id="my-svg_class-lollipopEnd-margin" class="marker lollipop class" refX="1" refY="7" markerWidth="190" markerHeight="240" orient="auto" markerUnits="userSpaceOnUse"><circle fill="transparent" cx="7" cy="7" r="6" stroke-width="2"/></marker></defs><g class="root"><g class="clusters"/><g class="edgePaths"><path d="M118.589,200L112.208,206.167C105.828,212.333,93.066,224.667,86.685,239C80.305,253.333,80.305,269.667,80.305,277.833L80.305,286" id="my-svg-id_User_Vehicle_1" class="edge-thickness-normal edge-pattern-solid relation" style=";;;" data-edge="true" data-et="edge" data-id="id_User_Vehicle_1" data-points="W3sieCI6MTE4LjU4OTE2ODIzMzA4MjcsInkiOjIwMH0seyJ4Ijo4MC4zMDQ2ODc1LCJ5IjoyMzd9LHsieCI6ODAuMzA0Njg3NSwieSI6Mjg2fV0=" data-look="classic"/><path d="M326.637,173.756L343.064,184.297C359.492,194.837,392.348,215.919,408.775,232.626C425.203,249.333,425.203,261.667,425.203,267.833L425.203,274" id="my-svg-id_User_TripOffer_2" class="edge-thickness-normal edge-pattern-solid relation" style=";;;" data-edge="true" data-et="edge" data-id="id_User_TripOffer_2" data-points="W3sieCI6MzI2LjYzNjcxODc1LCJ5IjoxNzMuNzU1ODIzMTU2OTQyNTR9LHsieCI6NDI1LjIwMzEyNSwieSI6MjM3fSx7IngiOjQyNS4yMDMxMjUsInkiOjI3NH1d" data-look="classic"/><path d="M217.922,200L217.922,206.167C217.922,212.333,217.922,224.667,217.922,253C217.922,281.333,217.922,325.667,217.922,370C217.922,414.333,217.922,458.667,223.204,487C228.486,515.333,239.05,527.667,244.332,533.833L249.614,540" id="my-svg-id_User_RideRequest_3" class="edge-thickness-normal edge-pattern-solid relation" style=";;;" data-edge="true" data-et="edge" data-id="id_User_RideRequest_3" data-points="W3sieCI6MjE3LjkyMTg3NSwieSI6MjAwfSx7IngiOjIxNy45MjE4NzUsInkiOjIzN30seyJ4IjoyMTcuOTIxODc1LCJ5IjozNzB9LHsieCI6MjE3LjkyMTg3NSwieSI6NTAzfSx7IngiOjI0OS42MTM2MzYzNjM2MzYzNywieSI6NTQwfV0=" data-look="classic"/><path d="M425.203,466L425.203,472.167C425.203,478.333,425.203,490.667,419.921,503C414.639,515.333,404.075,527.667,398.793,533.833L393.511,540" id="my-svg-id_TripOffer_RideRequest_4" class="edge-thickness-normal edge-pattern-solid relation" style=";;;" data-edge="true" data-et="edge" data-id="id_TripOffer_RideRequest_4" data-points="W3sieCI6NDI1LjIwMzEyNSwieSI6NDY2fSx7IngiOjQyNS4yMDMxMjUsInkiOjUwM30seyJ4IjozOTMuNTExMzYzNjM2MzYzNiwieSI6NTQwfV0=" data-look="classic"/></g><g class="edgeLabels"><g class="edgeLabel" transform="translate(80.3046875, 237)"><g class="label" data-id="id_User_Vehicle_1" transform="translate(-30.890625, -12)"><foreignObject width="61.78125" height="24"><div xmlns="http://www.w3.org/1999/xhtml" class="labelBkg" style="display: table-cell; white-space: nowrap; line-height: 1.5; max-width: 200px; text-align: center;"><span class="edgeLabel"><p>registers</p></span></div></foreignObject></g></g><g class="edgeLabel" transform="translate(425.203125, 237)"><g class="label" data-id="id_User_TripOffer_2" transform="translate(-18.3984375, -12)"><foreignObject width="36.796875" height="24"><div xmlns="http://www.w3.org/1999/xhtml" class="labelBkg" style="display: table-cell; white-space: nowrap; line-height: 1.5; max-width: 200px; text-align: center;"><span class="edgeLabel"><p>posts</p></span></div></foreignObject></g></g><g class="edgeLabel" transform="translate(217.921875, 370)"><g class="label" data-id="id_User_RideRequest_3" transform="translate(-30.3125, -12)"><foreignObject width="60.625" height="24"><div xmlns="http://www.w3.org/1999/xhtml" class="labelBkg" style="display: table-cell; white-space: nowrap; line-height: 1.5; max-width: 200px; text-align: center;"><span class="edgeLabel"><p>requests</p></span></div></foreignObject></g></g><g class="edgeLabel" transform="translate(425.203125, 503)"><g class="label" data-id="id_TripOffer_RideRequest_4" transform="translate(-29.890625, -12)"><foreignObject width="59.78125" height="24"><div xmlns="http://www.w3.org/1999/xhtml" class="labelBkg" style="display: table-cell; white-space: nowrap; line-height: 1.5; max-width: 200px; text-align: center;"><span class="edgeLabel"><p>contains</p></span></div></foreignObject></g></g><g class="edgeTerminals" transform="translate(95.58138621053375, 201.37547139617794)"><g class="inner" transform="translate(-2.890625, -8.25)"><foreignObject width="5.78125" height="16.5" style="width: 9px; height: 12px;"><div xmlns="http://www.w3.org/1999/xhtml" style="display: table-cell; white-space: nowrap; line-height: 1.5;"><span class="edgeLabel"><p>1</p></span></div></foreignObject></g></g><g class="edgeTerminals" transform="translate(333.2649981633703, 195.8310566582639)"><g class="inner" transform="translate(-2.890625, -8.25)"><foreignObject width="5.78125" height="16.5" style="width: 9px; height: 12px;"><div xmlns="http://www.w3.org/1999/xhtml" style="display: table-cell; white-space: nowrap; line-height: 1.5;"><span class="edgeLabel"><p>1</p></span></div></foreignObject></g></g><g class="edgeTerminals" transform="translate(202.92187750000014, 217.50000214285714)"><g class="inner" transform="translate(-2.890625, -8.25)"><foreignObject width="5.78125" height="16.5" style="width: 9px; height: 12px;"><div xmlns="http://www.w3.org/1999/xhtml" style="display: table-cell; white-space: nowrap; line-height: 1.5;"><span class="edgeLabel"><p>1</p></span></div></foreignObject></g></g><g class="edgeTerminals" transform="translate(410.20312750000016, 483.5000021428571)"><g class="inner" transform="translate(-2.890625, -8.25)"><foreignObject width="5.78125" height="16.5" style="width: 9px; height: 12px;"><div xmlns="http://www.w3.org/1999/xhtml" style="display: table-cell; white-space: nowrap; line-height: 1.5;"><span class="edgeLabel"><p>1</p></span></div></foreignObject></g></g><g class="edgeTerminals" transform="translate(90.30468874999995, 263.5000010714286)"><g class="inner" transform="translate(-2.0234375, -8.25)"/><foreignObject width="4.046875" height="16.5" style="width: 9px; height: 12px;"><div xmlns="http://www.w3.org/1999/xhtml" style="display: table-cell; white-space: nowrap; line-height: 1.5;"><span class="edgeLabel"><p>*</p></span></div></foreignObject></g><g class="edgeTerminals" transform="translate(435.2031274999998, 251.5000021428571)"><g class="inner" transform="translate(-2.0234375, -8.25)"/><foreignObject width="4.046875" height="16.5" style="width: 9px; height: 12px;"><div xmlns="http://www.w3.org/1999/xhtml" style="display: table-cell; white-space: nowrap; line-height: 1.5;"><span class="edgeLabel"><p>*</p></span></div></foreignObject></g><g class="edgeTerminals" transform="translate(244.62172954540105, 511.9511393687736)"><g class="inner" transform="translate(-2.0234375, -8.25)"/><foreignObject width="4.046875" height="16.5" style="width: 9px; height: 12px;"><div xmlns="http://www.w3.org/1999/xhtml" style="display: table-cell; white-space: nowrap; line-height: 1.5;"><span class="edgeLabel"><p>*</p></span></div></foreignObject></g><g class="edgeTerminals" transform="translate(411.2878231817646, 531.4668806312264)"><g class="inner" transform="translate(-2.0234375, -8.25)"/><foreignObject width="4.046875" height="16.5" style="width: 9px; height: 12px;"><div xmlns="http://www.w3.org/1999/xhtml" style="display: table-cell; white-space: nowrap; line-height: 1.5;"><span class="edgeLabel"><p>*</p></span></div></foreignObject></g></g><g class="nodes"><g class="node default" id="my-svg-classId-User-0" data-look="classic" transform="translate(217.921875, 104)"><g class="basic label-container outer-path"><path d="M-108.71484375 -96 L108.71484375 -96 L108.71484375 96 L-108.71484375 96" stroke="none" stroke-width="0" fill="#ECECFF" style=""/><path d="M-108.71484375 -96 C-26.262846451464824 -96, 56.18915084707035 -96, 108.71484375 -96 M-108.71484375 -96 C-43.66105245281872 -96, 21.392738844362555 -96, 108.71484375 -96 M108.71484375 -96 C108.71484375 -23.901280817767002, 108.71484375 48.197438364465995, 108.71484375 96 M108.71484375 -96 C108.71484375 -26.392779167123294, 108.71484375 43.21444166575341, 108.71484375 96 M108.71484375 96 C23.905688763023917 96, -60.903466223952165 96, -108.71484375 96 M108.71484375 96 C52.97086050135242 96, -2.7731227472951616 96, -108.71484375 96 M-108.71484375 96 C-108.71484375 37.592370435259085, -108.71484375 -20.81525912948183, -108.71484375 -96 M-108.71484375 96 C-108.71484375 57.05241808682827, -108.71484375 18.104836173656537, -108.71484375 -96" stroke="#9370DB" stroke-width="1.3" fill="none" stroke-dasharray="0 0" style=""/></g><g class="annotation-group text" transform="translate(0, -72)"/><g class="label-group text" transform="translate(-16.8828125, -72)"><g class="label" style="font-weight: bolder" transform="translate(0,-12)"><foreignObject width="33.765625" height="24"><div xmlns="http://www.w3.org/1999/xhtml" style="display: table-cell; white-space: nowrap; line-height: 1.5; max-width: 82px; text-align: center;"><span class="nodeLabel markdown-node-label" style=""><p>User</p></span></div></foreignObject></g></g><g class="members-group text" transform="translate(-96.71484375, -24)"><g class="label" style="" transform="translate(0,-12)"><foreignObject width="60.15625" height="24"><div xmlns="http://www.w3.org/1999/xhtml" style="display: table-cell; white-space: nowrap; line-height: 1.5; max-width: 116px; text-align: center;"><span class="nodeLabel markdown-node-label" style=""><p>+Long id</p></span></div></foreignObject></g><g class="label" style="" transform="translate(0,12)"><foreignObject width="93.96875" height="24"><div xmlns="http://www.w3.org/1999/xhtml" style="display: table-cell; white-space: nowrap; line-height: 1.5; max-width: 142px; text-align: center;"><span class="nodeLabel markdown-node-label" style=""><p>+String name</p></span></div></foreignObject></g><g class="label" style="" transform="translate(0,36)"><foreignObject width="103.953125" height="24"><div xmlns="http://www.w3.org/1999/xhtml" style="display: table-cell; white-space: nowrap; line-height: 1.5; max-width: 154px; text-align: center;"><span class="nodeLabel markdown-node-label" style=""><p>+UserRole role</p></span></div></foreignObject></g><g class="label" style="" transform="translate(0,60)"><foreignObject width="176.546875" height="24"><div xmlns="http://www.w3.org/1999/xhtml" style="display: table-cell; white-space: nowrap; line-height: 1.5; max-width: 213px; text-align: center;"><span class="nodeLabel markdown-node-label" style=""><p>+double reputationScore</p></span></div></foreignObject></g></g><g class="methods-group text" transform="translate(-96.71484375, 96)"/><g class="divider" style=""><path d="M-108.71484375 -48 C-54.77901598543684 -47.999751938990556, -0.8431882208736852 -47.99950387798111, 108.71484375 -47.999 M-108.71484375 -48 C-60.64258621627945 -47.99977890665214, -12.570328682558895 -47.99955781330428, 108.71484375 -47.999" stroke="#9370DB" stroke-width="1.3" fill="none" stroke-dasharray="0 0" style=""/></g><g class="divider" style=""><path d="M-108.71484375 72 C-57.076370759046966 72.00023749504304, -5.437897768093933 72.00047499008608, 108.71484375 72.001 M-108.71484375 72 C-45.49944849658346 72.00029073948447, 17.715946756833077 72.00058147896895, 108.71484375 72.001" stroke="#9370DB" stroke-width="1.3" fill="none" stroke-dasharray="0 0" style=""/></g></g><g class="node default" id="my-svg-classId-Vehicle-1" data-look="classic" transform="translate(80.3046875, 370)"><g class="basic label-container outer-path"><path d="M-72.3046875 -84 L72.3046875 -84 L72.3046875 84 L-72.3046875 84" stroke="none" stroke-width="0" fill="#ECECFF" style=""/><path d="M-72.3046875 -84 C-28.401719876286798 -84, 15.501247747426405 -84, 72.3046875 -84 M-72.3046875 -84 C-20.84153156578173 -84, 30.621624368436542 -84, 72.3046875 -84 M72.3046875 -84 C72.3046875 -46.53244617958534, 72.3046875 -9.064892359170685, 72.3046875 84 M72.3046875 -84 C72.3046875 -50.19233962450241, 72.3046875 -16.38467924900482, 72.3046875 84 M72.3046875 84 C28.934044620083867 84, -14.436598259832266 84, -72.3046875 84 M72.3046875 84 C31.755456321497753 84, -8.793774857004493 84, -72.3046875 84 M-72.3046875 84 C-72.3046875 21.878792488029546, -72.3046875 -40.24241502394091, -72.3046875 -84 M-72.3046875 84 C-72.3046875 31.36156290905759, -72.3046875 -21.27687418188482, -72.3046875 -84" stroke="#9370DB" stroke-width="1.3" fill="none" stroke-dasharray="0 0" style=""/></g><g class="annotation-group text" transform="translate(0, -60)"/><g class="label-group text" transform="translate(-27.3125, -60)"><g class="label" style="font-weight: bolder" transform="translate(0,-12)"><foreignObject width="54.625" height="24"><div xmlns="http://www.w3.org/1999/xhtml" style="display: table-cell; white-space: nowrap; line-height: 1.5; max-width: 99px; text-align: center;"><span class="nodeLabel markdown-node-label" style=""><p>Vehicle</p></span></div></foreignObject></g></g><g class="members-group text" transform="translate(-60.3046875, -12)"><g class="label" style="" transform="translate(0,-12)"><foreignObject width="60.15625" height="24"><div xmlns="http://www.w3.org/1999/xhtml" style="display: table-cell; white-space: nowrap; line-height: 1.5; max-width: 116px; text-align: center;"><span class="nodeLabel markdown-node-label" style=""><p>+Long id</p></span></div></foreignObject></g><g class="label" style="" transform="translate(0,12)"><foreignObject width="93.234375" height="24"><div xmlns="http://www.w3.org/1999/xhtml" style="display: table-cell; white-space: nowrap; line-height: 1.5; max-width: 140px; text-align: center;"><span class="nodeLabel markdown-node-label" style=""><p>+int capacity</p></span></div></foreignObject></g><g class="label" style="" transform="translate(0,36)"><foreignObject width="93.296875" height="24"><div xmlns="http://www.w3.org/1999/xhtml" style="display: table-cell; white-space: nowrap; line-height: 1.5; max-width: 142px; text-align: center;"><span class="nodeLabel markdown-node-label" style=""><p>+String make</p></span></div></foreignObject></g></g><g class="methods-group text" transform="translate(-60.3046875, 84)"/><g class="divider" style=""><path d="M-72.3046875 -36 C-15.251332218098433 -35.999605465722524, 41.802023063803134 -35.99921093144505, 72.3046875 -35.999 M-72.3046875 -36 C-31.774566545399956 -35.999719726878325, 8.755554409200087 -35.99943945375665, 72.3046875 -35.999" stroke="#9370DB" stroke-width="1.3" fill="none" stroke-dasharray="0 0" style=""/></g><g class="divider" style=""><path d="M-72.3046875 60 C-22.402433820357068 60.00034508311567, 27.499819859285864 60.00069016623133, 72.3046875 60.001 M-72.3046875 60 C-27.52860817820622 60.00030963469223, 17.24747114358756 60.00061926938446, 72.3046875 60.001" stroke="#9370DB" stroke-width="1.3" fill="none" stroke-dasharray="0 0" style=""/></g></g><g class="node default" id="my-svg-classId-TripOffer-2" data-look="classic" transform="translate(425.203125, 370)"><g class="basic label-container outer-path"><path d="M-141.96875 -96 L141.96875 -96 L141.96875 96 L-141.96875 96" stroke="none" stroke-width="0" fill="#ECECFF" style=""/><path d="M-141.96875 -96 C-77.35274991442975 -96, -12.736749828859502 -96, 141.96875 -96 M-141.96875 -96 C-59.744004769252314 -96, 22.480740461495373 -96, 141.96875 -96 M141.96875 -96 C141.96875 -29.44991664368122, 141.96875 37.10016671263756, 141.96875 96 M141.96875 -96 C141.96875 -44.02735030687505, 141.96875 7.9452993862499, 141.96875 96 M141.96875 96 C73.32510703269274 96, 4.681464065385484 96, -141.96875 96 M141.96875 96 C33.296751438818305 96, -75.37524712236339 96, -141.96875 96 M-141.96875 96 C-141.96875 53.17092604169672, -141.96875 10.341852083393434, -141.96875 -96 M-141.96875 96 C-141.96875 57.0158829740116, -141.96875 18.031765948023207, -141.96875 -96" stroke="#9370DB" stroke-width="1.3" fill="none" stroke-dasharray="0 0" style=""/></g><g class="annotation-group text" transform="translate(0, -72)"/><g class="label-group text" transform="translate(-34.09375, -72)"><g class="label" style="font-weight: bolder" transform="translate(0,-12)"><foreignObject width="68.1875" height="24"><div xmlns="http://www.w3.org/1999/xhtml" style="display: table-cell; white-space: nowrap; line-height: 1.5; max-width: 112px; text-align: center;"><span class="nodeLabel markdown-node-label" style=""><p>TripOffer</p></span></div></foreignObject></g></g><g class="members-group text" transform="translate(-129.96875, -24)"><g class="label" style="" transform="translate(0,-12)"><foreignObject width="60.15625" height="24"><div xmlns="http://www.w3.org/1999/xhtml" style="display: table-cell; white-space: nowrap; line-height: 1.5; max-width: 116px; text-align: center;"><span class="nodeLabel markdown-node-label" style=""><p>+Long id</p></span></div></foreignObject></g><g class="label" style="" transform="translate(0,12)"><foreignObject width="95.515625" height="24"><div xmlns="http://www.w3.org/1999/xhtml" style="display: table-cell; white-space: nowrap; line-height: 1.5; max-width: 147px; text-align: center;"><span class="nodeLabel markdown-node-label" style=""><p>+String origin</p></span></div></foreignObject></g><g class="label" style="" transform="translate(0,36)"><foreignObject width="135.21875" height="24"><div xmlns="http://www.w3.org/1999/xhtml" style="display: table-cell; white-space: nowrap; line-height: 1.5; max-width: 179px; text-align: center;"><span class="nodeLabel markdown-node-label" style=""><p>+String destination</p></span></div></foreignObject></g><g class="label" style="" transform="translate(0,60)"><foreignObject width="225.84375" height="24"><div xmlns="http://www.w3.org/1999/xhtml" style="display: table-cell; white-space: nowrap; line-height: 1.5; max-width: 262px; text-align: center;"><span class="nodeLabel markdown-node-label" style=""><p>+LocalDateTime departureTime</p></span></div></foreignObject></g></g><g class="methods-group text" transform="translate(-129.96875, 96)"/><g class="divider" style=""><path d="M-141.96875 -48 C-53.44041406429818 -47.99968821189193, 35.08792187140364 -47.99937642378386, 141.96875 -47.999 M-141.96875 -48 C-34.35426252440543 -47.99962099233995, 73.26022495118914 -47.9992419846799, 141.96875 -47.999" stroke="#9370DB" stroke-width="1.3" fill="none" stroke-dasharray="0 0" style=""/></g><g class="divider" style=""><path d="M-141.96875 72 C-79.3662658573821 72.00022047980327, -16.76378171476422 72.00044095960655, 141.96875 72.001 M-141.96875 72 C-74.63546912101104 72.00023714120495, -7.302188242022083 72.0004742824099, 141.96875 72.001" stroke="#9370DB" stroke-width="1.3" fill="none" stroke-dasharray="0 0" style=""/></g></g><g class="node default" id="my-svg-classId-RideRequest-3" data-look="classic" transform="translate(321.5625, 624)"><g class="basic label-container outer-path"><path d="M-102.91796875 -84 L102.91796875 -84 L102.91796875 84 L-102.91796875 84" stroke="none" stroke-width="0" fill="#ECECFF" style=""/><path d="M-102.91796875 -84 C-28.253952730884265 -84, 46.41006328823147 -84, 102.91796875 -84 M-102.91796875 -84 C-47.40167072835801 -84, 8.114627293283974 -84, 102.91796875 -84 M102.91796875 -84 C102.91796875 -50.289837278193744, 102.91796875 -16.579674556387488, 102.91796875 84 M102.91796875 -84 C102.91796875 -44.410441735069604, 102.91796875 -4.820883470139208, 102.91796875 84 M102.91796875 84 C25.161306996716135 84, -52.59535475656773 84, -102.91796875 84 M102.91796875 84 C45.91866661393255 84, -11.080635522134898 84, -102.91796875 84 M-102.91796875 84 C-102.91796875 48.8174813931631, -102.91796875 13.634962786326199, -102.91796875 -84 M-102.91796875 84 C-102.91796875 26.274827930874572, -102.91796875 -31.450344138250856, -102.91796875 -84" stroke="#9370DB" stroke-width="1.3" fill="none" stroke-dasharray="0 0" style=""/></g><g class="annotation-group text" transform="translate(0, -60)"/><g class="label-group text" transform="translate(-46.6171875, -60)"><g class="label" style="font-weight: bolder" transform="translate(0,-12)"><foreignObject width="93.234375" height="24"><div xmlns="http://www.w3.org/1999/xhtml" style="display: table-cell; white-space: nowrap; line-height: 1.5; max-width: 133px; text-align: center;"><span class="nodeLabel markdown-node-label" style=""><p>RideRequest</p></span></div></foreignObject></g></g><g class="members-group text" transform="translate(-90.91796875, -12)"><g class="label" style="" transform="translate(0,-12)"><foreignObject width="60.15625" height="24"><div xmlns="http://www.w3.org/1999/xhtml" style="display: table-cell; white-space: nowrap; line-height: 1.5; max-width: 116px; text-align: center;"><span class="nodeLabel markdown-node-label" style=""><p>+Long id</p></span></div></foreignObject></g><g class="label" style="" transform="translate(0,12)"><foreignObject width="95.515625" height="24"><div xmlns="http://www.w3.org/1999/xhtml" style="display: table-cell; white-space: nowrap; line-height: 1.5; max-width: 147px; text-align: center;"><span class="nodeLabel markdown-node-label" style=""><p>+String origin</p></span></div></foreignObject></g><g class="label" style="" transform="translate(0,36)"><foreignObject width="135.21875" height="24"><div xmlns="http://www.w3.org/1999/xhtml" style="display: table-cell; white-space: nowrap; line-height: 1.5; max-width: 179px; text-align: center;"><span class="nodeLabel markdown-node-label" style=""><p>+String destination</p></span></div></foreignObject></g></g><g class="methods-group text" transform="translate(-90.91796875, 84)"/><g class="divider" style=""><path d="M-102.91796875 -36 C-44.81365726883759 -35.99971771541847, 13.290654212324824 -35.99943543083694, 102.91796875 -35.999 M-102.91796875 -36 C-29.418526155078553 -35.99964292220548, 44.080916439842895 -35.99928584441097, 102.91796875 -35.999" stroke="#9370DB" stroke-width="1.3" fill="none" stroke-dasharray="0 0" style=""/></g><g class="divider" style=""><path d="M-102.91796875 60 C-28.882825212936908 60.000359680357256, 45.152318324126185 60.00071936071452, 102.91796875 60.001 M-102.91796875 60 C-46.01577852897012 60.00027644439019, 10.886411692059767 60.000552888780376, 102.91796875 60.001" stroke="#9370DB" stroke-width="1.3" fill="none" stroke-dasharray="0 0" style=""/></g></g></g></g></g><defs><filter id="my-svg-drop-shadow" height="130%" width="130%"><feDropShadow dx="4" dy="4" stdDeviation="0" flood-opacity="0.06" flood-color="#000000"/></filter></defs><defs><filter id="my-svg-drop-shadow-small" height="150%" width="150%"><feDropShadow dx="2" dy="2" stdDeviation="0" flood-opacity="0.06" flood-color="#000000"/></filter></defs></svg>